{"title":"Wrong Turn at Tahoe (2009) (DVDRIP) multisubs 10x","uid":5501311,"size":1634487296,"categoryP":"video","categoryS":"movies","magnet":"?xt=urn:btih:d5eedc61d6f799ec3fa84f2a8e8928e8461d2c76&amp;dn=Wrong+Turn+at+Tahoe+%282009%29+%28DVDRIP%29+multisubs+10x&amp;tr=udp%3A%2F%2Ftracker.openbittorrent.com%3A80&amp;tr=udp%3A%2F%2Fopen.demonii.com%3A1337&amp;tr=udp%3A%2F%2Ftracker.coppersurfer.tk%3A6969&amp;tr=udp%3A%2F%2Fexodus.desync.com%3A6969","seeders":0,"leechers":2,"uploader":"NLUPPER","files":-1,"time":1271548817,"description":"Wrong Turn at Tahoe (2009)(DVDRIP)multisubs 11x\n\n\nSource: Retail dvd9\nSubs: Dansk, Deutsch, English, Spanish, French, Chin, Italiano, Dutch, Norsk, Suomi, Svenska,English (FTHI)\nSubs external: idx, sub file\n\nPLOT\n\nA small-time crime boss kills a drug dealer without realizing that the drug dealer works for the biggest crime boss in the country.\n\nGeneral\n\nFormat                           : DivX\nFormat/Info                      : Hack of AVI\nFile size                        : 1.46 GiB\nDuration                         : 1h 27mn\nOverall bit rate                 : 2 397 Kbps\n\nVideo\nID                               : 0\nFormat                           : MPEG-4 Visual\nFormat profile                   : AdvancedSimple@L5\nFormat settings, BVOP            : Yes\nFormat settings, QPel            : No\nFormat settings, GMC             : No warppoints\nFormat settings, Matrix          : Custom\nMuxing mode                      : Packed bitstream\nCodec ID                         : DX50\nCodec ID/Hint                    : DivX 5\nDuration                         : 1h 27mn\nBit rate                         : 1 939 Kbps\nWidth                            : 720 pixels\nHeight                           : 304 pixels\nDisplay aspect ratio             : 2.35:1\nFrame rate                       : 25.000 fps\nResolution                       : 24 bits\nColorimetry                      : 4:2:0\nScan type                        : Progressive\nBits/(Pixel*Frame)               : 0.354\nStream size                      : 1.18 GiB (81%)\nTitle                            : Video \nWriting library                  : XviD 1.2.1 (UTC 2008-12-04)\n\nAudio\nID                               : 1\nFormat                           : AC-3\nFormat/Info                      : Audio Coding 3\nCodec ID                         : 2000\nDuration                         : 1h 27mn\nBit rate mode                    : Constant\nBit rate                         : 448 Kbps\nChannel(s)                       : 6 channels\nChannel positions                : Front: L C R, Surround: L R, LFE\nSampling rate                    : 48.0 KHz\nStream size                      : 279 MiB (19%)\nAlignment                        : Split accross interleaves\nInterleave, duration             : 40 ms (1.00 video frame)\nInterleave, preload duration     : 500 ms\nTitle                            : Audio \n\n\nVerenigde Staten\nThriller / Misdaad\n90 minuten\n\ngeregisseerd door Franck Khalfoun\nmet Harvey Keitel, Cuba Gooding Jr. en Miguel Ferrer\n\nJoshua (Cuba Gooding Jr.), die geld int voor een meedogenloze maffiabaas (Miguel Ferrer), leeft in een wereld vol met bruut geweld en mooie vrouwen. \nMaar waneer hij zich in het midden van een machtsstrijd bevindt met de meest dominante drugsbaron in het milieu (Harvey Keitel), beseft hij dat elke stap de verkeerde kan zijn.\n\n\n\n\nMM:  &lt;a href=&quot; http://www.moviemeter.nl/film/61707&quot; rel=&quot;nofollow&quot; target=&quot;_NEW&quot;&gt; http://www.moviemeter.nl/film/61707&lt;/a&gt;\n\nIMDB:   &lt;a href=&quot; http://www.imdb.com/title/tt1393000/&quot; rel=&quot;nofollow&quot; target=&quot;_NEW&quot;&gt; http://www.imdb.com/title/tt1393000/&lt;/a&gt;","torrent":{"xt":"urn:btih:d5eedc61d6f799ec3fa84f2a8e8928e8461d2c76","amp;dn":"Wrong+Turn+at+Tahoe+%282009%29+%28DVDRIP%29+multisubs+10x","amp;tr":["udp%3A%2F%2Ftracker.openbittorrent.com%3A80","udp%3A%2F%2Fopen.demonii.com%3A1337","udp%3A%2F%2Ftracker.coppersurfer.tk%3A6969","udp%3A%2F%2Fexodus.desync.com%3A6969"],"infoHash":"d5eedc61d6f799ec3fa84f2a8e8928e8461d2c76","infoHashBuffer":{"type":"Buffer","data":[213,238,220,97,214,247,153,236,63,168,79,42,142,137,40,232,70,29,44,118]},"announce":[],"urlList":[]}}